HIERARCHY
ROOT Character1_Hips
{
  OFFSET 0.000000 0.000000 0.000000
  CHANNELS 6 Xposition Yposition Zposition Zrotation Xrotation Yrotation
  JOINT Character1_Spine
  {
    OFFSET 0.000000 0.000000 0.000000
    CHANNELS 3 Zrotation Xrotation Yrotation
    JOINT Character1_Spine1
    {
      OFFSET -0.159647 12.118038 -0.624335
      CHANNELS 3 Zrotation Xrotation Yrotation
      JOINT Character1_LeftShoulder
      {
        OFFSET 0.043845 24.307200 0.378636
        CHANNELS 3 Zrotation Xrotation Yrotation
        JOINT Character1_LeftArm
        {
          OFFSET 18.150765 8.164377 -0.209994
          CHANNELS 3 Zrotation Xrotation Yrotation
          JOINT Character1_LeftForeArm
          {
            OFFSET 30.911856 -0.000000 -0.000000
            CHANNELS 3 Zrotation Xrotation Yrotation
            JOINT Character1_LeftHand
            {
              OFFSET 17.444607 -0.000000 -0.000000
              CHANNELS 3 Zrotation Xrotation Yrotation
              End Site
              {
                OFFSET 8.722304 -0.000000 -0.000000
              }
            }
          }
        }
      }
      JOINT Character1_RightShoulder
      {
        OFFSET 0.043845 24.307200 0.378636
        CHANNELS 3 Zrotation Xrotation Yrotation
        JOINT Character1_RightArm
        {
          OFFSET -19.117327 7.275927 -0.400367
          CHANNELS 3 Zrotation Xrotation Yrotation
          JOINT Character1_RightForeArm
          {
            OFFSET -29.022717 -0.000000 -0.000000
            CHANNELS 3 Zrotation Xrotation Yrotation
            JOINT Character1_RightHand
            {
              OFFSET -18.940780 -0.000000 -0.000000
              CHANNELS 3 Zrotation Xrotation Yrotation
              End Site
              {
                OFFSET -9.470362 -0.000000 -0.000000
              }
            }
          }
        }
      }
      JOINT Character1_Neck
      {
        OFFSET 0.043845 24.307200 0.378636
        CHANNELS 3 Zrotation Xrotation Yrotation
        JOINT Character1_Head
        {
          OFFSET -0.045498 21.428801 -0.982541
          CHANNELS 3 Zrotation Xrotation Yrotation
          End Site
          {
            OFFSET 0.179810 10.843468 -0.535288
          }
        }
      }
    }
  }
  JOINT Character1_RightUpLeg
  {
    OFFSET -9.266443 -10.474173 3.905763
    CHANNELS 3 Zrotation Xrotation Yrotation
    JOINT Character1_RightLeg
    {
      OFFSET -13.649050 -37.500488 0.000000
      CHANNELS 3 Zrotation Xrotation Yrotation
      JOINT Character1_RightFoot
      {
        OFFSET -15.837653 -43.513629 0.000000
        CHANNELS 3 Zrotation Xrotation Yrotation
        JOINT Character1_RightToeBase
        {
          OFFSET -1.077978 -2.961728 12.722659
          CHANNELS 3 Zrotation Xrotation Yrotation
          End Site
          {
            OFFSET -0.000000 -0.000000 6.566352
          }
        }
      }
    }
  }
  JOINT Character1_LeftUpLeg
  {
    OFFSET 9.869701 -10.474183 3.905765
    CHANNELS 3 Zrotation Xrotation Yrotation
    JOINT Character1_LeftLeg
    {
      OFFSET 13.546829 -37.219639 0.000000
      CHANNELS 3 Zrotation Xrotation Yrotation
      JOINT Character1_LeftFoot
      {
        OFFSET 15.926881 -43.758782 0.000000
        CHANNELS 3 Zrotation Xrotation Yrotation
        JOINT Character1_LeftToeBase
        {
          OFFSET 0.929407 -2.553526 12.806656
          CHANNELS 3 Zrotation Xrotation Yrotation
          End Site
          {
            OFFSET 0.000000 -0.000000 6.574988
          }
        }
      }
    }
  }
}
MOTION
Frames:	9
Frame Time:	0.00833333
-94.333342 101.205453 52.262758 -4.534766 -0.063777 115.162124 -1.570372 4.883055 2.421926 -0.365740 2.643315 3.224294 0.000000 0.000000 -0.000000 -87.213328 31.901908 7.454040 15.821116 -3.994615 -28.178330 -0.000000 -11.247400 0.000000 0.000000 0.000000 -0.000000 84.514634 24.334264 -2.027441 -15.833353 -4.001158 28.201466 0.000000 -7.221610 0.000000 -3.950034 -6.272595 -0.127711 0.720015 7.973321 0.576662 20.318848 -9.148391 9.734763 1.960846 23.856876 -9.262726 -2.671421 -20.093190 -5.191258 0.182912 -7.558882 2.768358 -21.615764 -8.392084 -17.835444 -1.694882 22.298511 8.584278 -0.154373 -14.120944 -3.169909 -0.099433 -5.583145 -2.038985
-94.268431 101.214484 52.500332 -4.476948 -0.190049 115.527440 -1.427168 4.916008 2.373908 -0.256138 2.654796 3.166652 0.000000 0.000000 -0.000000 -87.223110 32.535978 7.420682 15.971493 -4.075453 -28.462891 0.000000 -11.424700 0.000000 0.000000 0.000000 -0.000000 84.427389 24.363013 -1.947760 -15.859586 -4.015204 28.251074 -0.000000 -7.234130 -0.000000 -3.996364 -6.342124 -0.218296 0.731573 7.979714 0.513420 20.581058 -9.177790 9.521849 1.949900 23.795385 -9.235628 -2.716123 -20.127541 -5.323750 0.190698 -7.716797 2.826938 -21.379723 -8.396269 -18.116973 -1.700253 22.331403 8.598425 -0.147869 -14.140586 -3.144630 -0.124500 -6.244039 -2.282288
-94.228356 101.213920 52.760203 -4.649328 -0.245484 115.998822 -1.450088 4.853584 2.288571 -0.182910 2.591948 3.050264 -0.000000 -0.000000 0.000000 -87.211301 33.452302 7.450651 16.173234 -4.185408 -28.845519 0.000000 -11.798200 0.000000 -0.000000 -0.000000 0.000000 84.350941 24.303449 -1.861351 -15.864222 -4.017690 28.259843 0.000000 -7.166710 0.000000 -4.111996 -6.307067 -0.277136 0.780897 7.938041 0.466163 20.693639 -9.374015 9.475558 1.943050 23.756799 -9.218638 -2.819132 -20.250686 -5.597412 0.187923 -7.660905 2.806200 -21.341321 -8.651517 -18.439291 -1.710234 22.392352 8.624659 -0.101680 -14.114914 -2.942210 -0.209296 -8.081120 -2.962267
-94.212551 101.217871 53.025661 -4.898445 -0.502949 116.527178 -1.280626 4.693893 2.180808 -0.083865 2.447634 2.909577 0.000000 0.000000 -0.000000 -87.196394 34.333059 7.517062 16.400555 -4.311387 -29.277888 0.000000 -12.141600 0.000000 0.000000 0.000000 -0.000000 84.311401 24.236980 -1.856689 -15.875964 -4.023989 28.282056 -0.000000 -7.132110 -0.000000 -4.199473 -6.219359 -0.342943 0.816247 7.887834 0.416354 20.978750 -9.767487 9.478970 1.943527 23.759489 -9.219822 -2.939739 -20.356461 -5.941224 0.185892 -7.619730 2.790925 -21.140829 -9.175309 -18.648754 -1.716520 22.430628 8.641147 -0.172408 -13.656434 -3.188601 -0.271094 -9.184986 -3.373946
-94.187151 101.220129 53.265663 -4.965897 -0.725657 116.982976 -1.034348 4.664499 2.099998 0.011694 2.369451 2.809674 -0.000000 0.000000 -0.000000 -87.145925 35.078864 7.523382 16.637234 -4.444923 -29.729466 0.000000 -12.447400 0.000000 -0.000000 0.000000 -0.000000 84.253549 24.292765 -1.835886 -15.903192 -4.038618 28.333575 0.000000 -7.251680 0.000000 -4.234252 -6.160380 -0.414128 0.826900 7.840065 0.363036 21.272928 -10.031697 9.313161 1.948779 23.789078 -9.232850 -3.000416 -20.382025 -6.133126 0.183816 -7.577391 2.775222 -20.868804 -9.484085 -18.809149 -1.721014 22.457941 8.652918 -0.277653 -13.258648 -3.615799 -0.238163 -8.615116 -3.161096
-94.141996 101.219000 53.481788 -4.924291 -0.767142 117.357376 -0.907363 4.745075 2.026328 0.074570 2.388564 2.717733 0.000000 0.000000 -0.000000 -87.080811 35.669203 7.475601 16.898079 -4.594928 -30.228873 0.000000 -12.639900 0.000000 0.000000 0.000000 -0.000000 84.177882 24.356976 -1.702413 -15.889866 -4.031455 28.308359 0.000000 -7.227210 0.000000 -4.259576 -6.227330 -0.472238 0.839752 7.824492 0.317049 21.402148 -10.142201 8.978165 1.951251 23.802990 -9.238978 -3.009983 -20.370696 -6.174522 0.177905 -7.455503 2.730034 -20.731553 -9.497192 -19.061271 -1.726741 22.492685 8.667899 -0.299621 -13.153772 -3.706095 -0.217137 -8.229736 -3.017545
-94.103049 101.209404 53.700398 -4.977149 -0.758840 117.665416 -0.832355 4.776257 2.001754 0.086615 2.395473 2.688541 0.000000 -0.000000 0.000000 -86.973456 36.359462 7.423375 17.172838 -4.756189 -30.756923 0.000000 -12.690700 0.000000 0.000000 -0.000000 0.000000 84.175467 24.246637 -1.597687 -15.897192 -4.035392 28.322220 0.000000 -7.233440 0.000000 -4.282476 -6.383135 -0.562837 0.854301 7.862093 0.255061 21.453288 -10.286946 8.751116 1.952076 23.807628 -9.241021 -3.023648 -20.369681 -6.222701 0.172790 -7.348357 2.690333 -20.696941 -9.561721 -19.294006 -1.729916 22.511914 8.676193 -0.340301 -12.926971 -3.874901 -0.167003 -7.225156 -2.644709
-94.064102 101.204889 53.910089 -5.082791 -0.724452 117.937565 -0.849317 4.724483 1.986151 0.143351 2.393107 2.667628 -0.000000 0.000000 0.000000 -87.000427 37.009741 7.426320 17.458339 -4.927343 -31.307868 0.000000 -12.671900 0.000000 -0.000000 0.000000 0.000000 84.060115 24.251338 -1.607492 -15.948970 -4.063285 28.420235 0.000000 -7.478260 0.000000 -4.434430 -6.358011 -0.636150 0.892961 7.829103 0.200429 21.450191 -10.429668 8.604304 1.951021 23.801692 -9.238406 -3.044980 -20.373107 -6.294301 0.173038 -7.353585 2.692270 -20.719879 -9.634605 -19.592805 -1.733831 22.535602 8.686415 -0.391485 -12.719569 -4.099003 -0.091331 -5.351774 -1.953950
-94.016124 101.213920 54.113740 -5.140414 -0.737276 118.257376 -0.775027 4.606476 1.933819 0.199416 2.449112 2.603900 0.000000 0.000000 -0.000000 -86.949289 37.588289 7.365224 17.769614 -5.118177 -31.911257 0.000000 -12.735400 0.000000 0.000000 0.000000 -0.000000 83.934500 24.135727 -1.417558 -15.911309 -4.042986 28.348938 0.000000 -7.461320 0.000000 -4.580049 -6.286488 -0.689913 0.940785 7.743904 0.150331 21.498666 -10.544297 8.412096 1.948532 23.787686 -9.232237 -3.041551 -20.415123 -6.251634 0.154045 -6.941106 2.539619 -20.693995 -9.748741 -19.829216 -1.745347 22.605082 8.716418 -0.383645 -12.727011 -4.063172 -0.126317 -6.289193 -2.298934
